<svg width="73" height="73" xmlns="http://www.w3.org/2000/svg" viewBox="0 0 73 73">
  <g transform="translate(5.0,0)">
    <path d="M31 0 L62 18 L62 54 L31 72 L0 54 L0 18 Z" fill="#3f4044"/>
    <path d="M31 2.52 L59.83 19.26 L59.83 52.74 L31 69.48 L2.17 52.74 L2.17 19.26 Z" fill="none" stroke="#ff000a" stroke-width="3"/>
    <g transform="scale(0.125)">
      <g transform="translate(0.000000,584.000000) scale(0.100000,-0.100000)" fill="#ff000a" stroke="none">
        <path d="M2633 4256 c-33 -24 -217 -200 -407 -391 -347 -347 -347 -347 -439
-533 -51 -103 -99 -213 -106 -245 -7 -32 -27 -91 -44 -130 -43 -102 -44 -211
0 -312 16 -39 35 -95 42 -125 7 -30 37 -105 66 -165 53 -111 53 -111 370 -430
323 -325 333 -337 366 -433 23 -68 44 -92 79 -92 37 0 56 24 84 106 13 38 34
92 47 119 17 39 23 69 23 135 1 82 -1 89 -50 190 -41 86 -68 125 -144 210 -86
96 -99 117 -184 289 -91 185 -91 185 -91 351 0 165 0 165 57 281 73 149 142
219 215 219 61 0 94 -36 118 -127 23 -86 38 -115 92 -182 25 -30 57 -80 73
-110 15 -31 51 -85 80 -121 29 -36 65 -90 80 -120 15 -30 51 -84 79 -119 86
-107 87 -119 68 -526 -2 -44 1 -50 19 -53 30 -4 122 68 248 194 100 101 112
118 165 224 56 115 56 115 56 280 0 165 0 165 -57 280 -56 115 -56 115 -296
358 -198 201 -247 256 -276 312 -20 38 -56 93 -80 122 -53 66 -70 98 -86 168
-7 30 -26 86 -42 125 -28 65 -29 77 -26 180 4 135 -5 141 -99 71z"/>
      </g>
    </g>
  </g>
</svg>
