<svg xmlns="http://www.w3.org/2000/svg" viewBox="0 0 73 73">
  <g transform="translate(5,0)">
    <path d="M31 0 L62 18 L62 54 L31 72 L0 54 L0 18 Z" fill="#3f4044"/>
    <path d="M31 2.52 L59.83 19.26 L59.83 52.74 L31 69.48 L2.17 52.74 L2.17 19.26 Z" fill="none" stroke="#00ff23" stroke-width="3"/>
    <g transform="scale(0.125)">
      <g transform="translate(0.000000,584.000000) scale(0.100000,-0.100000)" fill="#00ff23" stroke="none">
        <path d="M2318 4230 c-62 -16 -215 -97 -252 -135 -19 -19 -54 -74 -78 -121
-52 -106 -56 -155 -15 -225 36 -60 36 -103 0 -126 -24 -16 -63 -19 -354 -23
-313 -5 -329 -6 -356 -26 -90 -67 -55 -192 59 -209 24 -3 313 -5 643 -3 600 3
600 3 645 29 79 47 155 137 210 250 69 140 69 176 0 316 -63 128 -97 163 -224
225 -110 53 -198 68 -278 48z m143 -320 c59 -17 84 -52 84 -119 0 -105 -82
-182 -194 -184 -112 -2 -143 40 -116 158 29 131 103 179 226 145z"/>
<path d="M3445 3959 c-27 -11 -79 -27 -115 -36 -87 -21 -134 -49 -202 -121
-77 -81 -158 -242 -158 -315 0 -130 105 -216 204 -167 55 26 82 68 106 161 10
39 30 88 44 109 69 104 277 119 370 26 83 -84 115 -213 76 -304 -28 -65 -67
-99 -166 -149 -78 -38 -78 -38 -1348 -43 -1176 -5 -1273 -6 -1302 -22 -75 -41
-52 -143 44 -190 47 -23 47 -23 1367 -23 1534 0 1335 -24 1541 182 161 163
169 178 169 338 0 120 0 120 -52 228 -80 166 -178 259 -303 287 -30 7 -83 24
-118 36 -75 29 -92 29 -157 3z"/>
<path d="M1358 2710 c-155 -47 -179 -214 -40 -282 47 -23 47 -23 677 -31 347
-4 668 -7 715 -5 47 2 159 3 250 3 192 0 212 -7 307 -108 85 -90 90 -142 22
-262 -35 -63 -59 -86 -132 -124 -112 -59 -154 -53 -251 39 -66 62 -85 96 -110
192 -35 133 -105 174 -206 121 -118 -62 -129 -131 -46 -298 73 -149 148 -222
302 -297 108 -53 108 -53 234 -53 126 0 126 0 231 51 133 65 166 98 231 232
53 107 53 107 53 267 0 201 -5 213 -141 348 -88 88 -111 105 -213 155 -114 57
-114 57 -985 59 -479 1 -883 -2 -898 -7z"/>
      </g>
    </g>
  </g>
</svg>
