<svg xmlns="http://www.w3.org/2000/svg" viewBox="0 0 73 73">
  <g transform="translate(5,0)">
    <path d="M31 0 L62 18 L62 54 L31 72 L0 54 L0 18 Z" fill="#3f4044"/>
    <path d="M31 2.52 L59.83 19.26 L59.83 52.74 L31 69.48 L2.17 52.74 L2.17 19.26 Z" fill="none" stroke="#ffa910" stroke-width="3"/>
    <path d="M21.0 19.5 L29.23 24.25 L29.23 33.75 L21.0 38.5 L12.77 33.75 L12.77 24.25 Z" fill="#ffa910"/>
    <path d="M40.0 19.5 L48.23 24.25 L48.23 33.75 L40.0 38.5 L31.77 33.75 L31.77 24.25 Z" fill="#ffa910"/>
    <path d="M31.0 36.5 L39.23 41.25 L39.23 50.75 L31.0 55.5 L22.77 50.75 L22.77 41.25 Z" fill="#ffa910"/>
  </g>
</svg>
