<svg xmlns="http://www.w3.org/2000/svg" viewBox="0 0 73 73">
  <g transform="translate(5,0)">
    <path d="M31 0 L62 18 L62 54 L31 72 L0 54 L0 18 Z" fill="#3f4044"/>
    <path d="M31 2.52 L59.83 19.26 L59.83 52.74 L31 69.48 L2.17 52.74 L2.17 19.26 Z" fill="none" stroke="#007eff" stroke-width="3"/>
    <path d="M27.50 20.00 C15.95 37.60, 17.00 45.60, 17.00 41.50 A10.50 10.50 0 1 0 38.00 41.50 C38.00 45.60, 39.05 37.60, 27.50 20.00 Z" fill="#007eff"/>
    <path d="M42.00 20.00 C37.60 26.05, 38.00 28.80, 38.00 27.00 A4.00 4.00 0 1 0 46.00 27.00 C46.00 28.80, 46.40 26.05, 42.00 20.00 Z" fill="#007eff"/>
  </g>
</svg>
